HIERARCHY
ROOT RootJoint
{
    OFFSET   0.000000   0.000000   0.000000
    CHANNELS 6 Xposition Yposition Zposition Xrotation Yrotation Zrotation
    JOINT pelvis_lowerback
    {
        OFFSET   0.000000   0.093605   0.000000
        CHANNELS 3 Xrotation Yrotation Zrotation
        JOINT lowerback_torso
        {
            OFFSET   0.000000   0.100000   0.000000
            CHANNELS 3 Xrotation Yrotation Zrotation
            JOINT torso_head
            {
                OFFSET   0.000000   0.282350   0.000000
                CHANNELS 3 Xrotation Yrotation Zrotation
                End Site
                {
                    OFFSET   0.000000   0.192650   0.000000
                }
            }
            JOINT rTorso_Clavicle
            {
                OFFSET  -0.001000   0.157500   0.000000
                CHANNELS 3 Xrotation Yrotation Zrotation
                JOINT rShoulder
                {
                    OFFSET  -0.117647   0.000000   0.000000
                    CHANNELS 3 Xrotation Yrotation Zrotation
                    JOINT rElbow
                    {
                        OFFSET  -0.245000   0.000000   0.000000
                        CHANNELS 3 Xrotation Yrotation Zrotation
                        JOINT rWrist
                        {
                            OFFSET  -0.240000   0.000000   0.000000
                            CHANNELS 3 Xrotation Yrotation Zrotation
                            End Site
                            {
                                OFFSET  -0.116353  -0.002500   0.000000
                            }
                        }
                    }
                }
            }
            JOINT lTorso_Clavicle
            {
                OFFSET   0.001000   0.157500   0.000000
                CHANNELS 3 Xrotation Yrotation Zrotation
                JOINT lShoulder
                {
                    OFFSET   0.117647   0.000000   0.000000
                    CHANNELS 3 Xrotation Yrotation Zrotation
                    JOINT lElbow
                    {
                        OFFSET   0.245000   0.000000   0.000000
                        CHANNELS 3 Xrotation Yrotation Zrotation
                        JOINT lWrist
                        {
                            OFFSET   0.240000   0.000000   0.000000
                            CHANNELS 3 Xrotation Yrotation Zrotation
                            End Site
                            {
                                OFFSET   0.116353  -0.002500   0.000000
                            }
                        }
                    }
                }
            }
        }
    }
    JOINT rHip
    {
        OFFSET  -0.100000  -0.051395   0.000000
        CHANNELS 3 Xrotation Yrotation Zrotation
        JOINT rKnee
        {
            OFFSET   0.000000  -0.410000   0.000000
            CHANNELS 3 Xrotation Yrotation Zrotation
            JOINT rAnkle
            {
                OFFSET   0.000000  -0.390000   0.000000
                CHANNELS 3 Xrotation Yrotation Zrotation
                JOINT rToeJoint
                {
                    OFFSET   0.000000  -0.050000   0.130000
                    CHANNELS 3 Xrotation Yrotation Zrotation
                    End Site
                    {
                        OFFSET  -0.010000   0.002000   0.060000
                    }
                }
            }
        }
    }
    JOINT lHip
    {
        OFFSET   0.100000  -0.051395   0.000000
        CHANNELS 3 Xrotation Yrotation Zrotation
        JOINT lKnee
        {
            OFFSET   0.000000  -0.410000   0.000000
            CHANNELS 3 Xrotation Yrotation Zrotation
            JOINT lAnkle
            {
                OFFSET   0.000000  -0.390000   0.000000
                CHANNELS 3 Xrotation Yrotation Zrotation
                JOINT lToeJoint
                {
                    OFFSET   0.000000  -0.050000   0.130000
                    CHANNELS 3 Xrotation Yrotation Zrotation
                    End Site
                    {
                        OFFSET   0.010000   0.002000   0.060000
                    }
                }
            }
        }
    }
}
MOTION
Frames: 7
Frame Time:   0.008333
 -2.365339   0.817334   4.290552  -7.329770   3.129915  -0.437580  14.445929  -1.488653  -2.546370   4.843036  -0.020235   1.500943   1.521527   2.365691  -1.471008  -0.368331  -1.805426   1.005297  -3.440692   1.359510  34.603222  -0.103802  54.653818   0.056095   0.922315   2.622374  -3.733738   2.074961   1.940564   1.131347   6.088556   0.028180 -27.561445   0.044318 -41.878642   0.033941   0.013514   0.462055   3.769875 -25.722478   4.950954  -8.966396  71.116035  -0.015537  -0.021909 -17.331443   5.779503   6.786449  -7.795124  -0.009798  -0.008124 -29.402103  -6.084048   4.516814  55.448843   0.005032   0.009722 -18.627816   2.667304  -2.030336  -0.499445   0.002757  -0.002191
 -2.362681   0.820550   4.294179  -7.463897   3.695300  -0.164698  14.505457  -1.794497  -2.828737   4.932917  -0.302248   1.311380   1.542312   2.437519  -1.548432  -0.030294  -1.516759   1.150189  -2.602459   1.436512  35.835988  -0.119295  52.959059   0.071920   0.905967   2.605747  -3.621629   1.977673   1.133431   0.964532   6.063691  -1.367216 -28.092898   0.052807 -42.906181   0.039263   0.024162   0.611270   3.753925 -26.085124   4.508939  -9.186052  72.336370  -0.014965  -0.015410 -15.821815   5.387548   6.622134  -7.187268  -0.009051  -0.009476 -28.666764  -6.042681   4.006578  54.585252   0.001371   0.006744 -18.402910   2.375026  -2.000777   0.050371   0.003347  -0.002001
 -2.360327   0.823987   4.297610  -7.558422   4.365682   0.098438  14.545111  -2.077102  -3.101172   5.009849  -0.593836   1.123719   1.556620   2.515079  -1.629704   0.317875  -1.219811   1.304098  -1.790921   1.525050  37.012214  -0.128350  51.335839   0.083495   0.880703   2.321723  -3.325624   1.846397   0.267133   0.790672   5.986466  -2.771895 -28.610199   0.059364 -43.923713   0.042631   0.055295   0.476861   3.664013 -26.441579   4.069967  -9.330607  73.429810  -0.013503  -0.008980 -14.413082   5.015927   6.479314  -6.613004  -0.008374  -0.009277 -27.959172  -6.036570   3.514210  53.619091  -0.002029   0.003403 -18.094279   2.034016  -1.952213   0.559288   0.003633  -0.001644
 -2.358164   0.827486   4.300924  -7.623625   5.067043   0.354189  14.570429  -2.348832  -3.363915   5.070166  -0.886264   0.931581   1.567502   2.590642  -1.710219   0.643572  -0.923877   1.454400  -1.034847   1.634438  38.120981  -0.130309  49.820925   0.089341   0.857315   2.001914  -2.952683   1.705672  -0.592874   0.608162   5.884995  -4.124698 -29.109564   0.063521 -44.894627   0.044147   0.094320   0.199886   3.537136 -26.806708   3.655693  -9.418350  74.441731  -0.011775  -0.003330 -13.100501   4.667433   6.355298  -6.088744  -0.007682  -0.008292 -27.271755  -6.064392   3.038830  52.602022  -0.004778   0.000333 -17.749572   1.672474  -1.884759   0.419738   0.002685  -0.001302
 -2.356130   0.830949   4.304174  -7.668375   5.769274   0.600815  14.583154  -2.608444  -3.615354   5.116537  -1.170232   0.736927   1.576490   2.661991  -1.787601   0.942225  -0.636849   1.589785  -0.336229   1.757961  39.156322  -0.126989  48.412017   0.090686   0.838755   1.711827  -2.565255   1.566422  -1.419233   0.422365   5.772303  -5.406694 -29.589778   0.065450 -45.811128   0.044139   0.135089  -0.136320   3.387927 -27.175577   3.265060  -9.464648  75.384411  -0.010052   0.001308 -11.877217   4.340755   6.247212  -5.611213  -0.006976  -0.007006 -26.602910  -6.115694   2.584529  51.569875  -0.006835  -0.002276 -17.393241   1.309641  -1.807849   0.305000   0.001989  -0.001034
 -2.354193   0.834311   4.307392  -7.698108   6.459311   0.837938  14.584470  -2.853356  -3.855159   5.151278  -1.440405   0.542053   1.584175   2.728787  -1.860978   1.215160  -0.364324   1.705458   0.308381   1.888567  40.117393  -0.120209  47.101728   0.088892   0.824508   1.459340  -2.191566   1.433613  -2.199583   0.238429   5.655208  -6.611210 -30.049143   0.065472 -46.671736   0.042932   0.174865  -0.492205   3.226308 -27.541595   2.896276  -9.482077  76.263417  -0.008439   0.004933 -10.736921   4.034667   6.152773  -5.176102  -0.006263  -0.005670 -25.954109  -6.183887   2.152232  50.546157  -0.008266  -0.004380 -17.040203   0.952868  -1.725929   0.209986   0.001475  -0.000822
 -2.352330   0.837532   4.310593  -7.716210   7.131504   1.065866  14.575795  -3.081703  -4.083525   5.176297  -1.693853   0.348906   1.590803   2.791152  -1.930192   1.464931  -0.109180   1.800531   0.903483   2.021169  41.006493  -0.111416  45.882359   0.085073   0.813473   1.238937  -1.843805   1.309503  -2.928758   0.060344   5.537660  -7.736972 -30.486232   0.063956 -47.477362   0.040831   0.212482  -0.847900   3.060184 -27.899376   2.548331  -9.480140  77.082779  -0.006971   0.007642  -9.673798   3.748000   6.070084  -4.779358  -0.005555  -0.004409 -25.327736  -6.264888   1.741324  49.546355  -0.009168  -0.006000 -16.699344   0.605146  -1.642168   0.130674   0.001092  -0.000655
